<svg height="16" viewBox="0 0 16 16" width="16" xmlns="http://www.w3.org/2000/svg"><path d="m521.02171 465.1281-55.88576 55.88352c-3.21698 3.21922-8.43696 3.21922-11.65826 0l-9.69265-9.49786 11.10731-11.10765c4.13611 1.39644 8.87858.4592 12.17393-2.83683 3.31522-3.31656 4.24388-8.09979 2.81191-12.25021l17.15131-17.1493c4.15043 1.43063 8.93567.50584 12.25089-2.81393 4.63067-4.62931 4.63067-12.13386 0-16.76705-4.63403-4.63336-12.13706-4.63336-16.77311 0-3.48277 3.48614-4.34441 8.60412-2.57836 12.89548l-15.99684 15.9955v-42.09174c1.12803-.55905 2.19359-1.30366 3.1342-2.24158 4.63067-4.63016 4.63067-12.13386 0-16.7711-4.63067-4.62864-12.13908-4.62864-16.76638 0-4.63066 4.63724-4.63066 12.14094 0 16.7711 1.14453 1.14318 2.46992 2.00802 3.88404 2.58694v42.48106c-1.41412.57891-2.73631 1.43651-3.88404 2.58761-3.50718 3.50601-4.35114 8.6543-2.55208 12.96199l-10.85607 10.85827-39.04138-39.23526c-3.21858-3.22186-3.21858-8.44184 0-11.66091l55.88851-55.88364c3.21754-3.21858 8.43584-3.21858 11.65826 0l55.62457 55.62468c3.21963 3.21963 3.21963 8.44225 0 11.66091" fill="#fff" transform="matrix(.125 0 0 -.125 -49.429554 65.428254)"/></svg>
